<svg xmlns="http://www.w3.org/2000/svg" viewBox="0 0 512 512" xml:space="preserve">
  <rect width="512" height="80" fill="#646464" />
  <rect x="111" y="161" width="112" height="190" fill="#ababab" />
  <rect y="432" width="512" height="80" fill="#646464" />
  <path d="M300.522 150.261h133.565v33.391H300.522zm0 178.087h133.565v33.391H300.522zm0-89.044h133.565v33.391H300.522zM77.913 161.391h33.391v122.435H77.913zm144.696 0H256v122.435h-33.391zM111.304 128h111.304v33.391H111.304zm111.305 189.217v33.392H111.304v-33.392H77.913V384H256v-66.783z"/>
  <path d="M111.304 283.826h33.391v33.391h-33.391zm77.913 0h33.391v33.391h-33.391z"/>
  <path d="M0 61.217v389.565h512V61.217zm478.609 356.174H33.391V94.609h445.217z" />
</svg>
